HIERARCHY
ROOT Hips
{
	OFFSET -3.958830 18.904000 13.208200
	CHANNELS 6 Xposition Yposition Zposition Zrotation Yrotation Xrotation 
	JOINT LHipJoint
	{
		OFFSET 0.000000 0.000000 0.000000
		CHANNELS 3 Zrotation Yrotation Xrotation
		JOINT LeftUpLeg
		{
			OFFSET 1.800000 -1.400000 0.085000
			CHANNELS 3 Zrotation Yrotation Xrotation
			JOINT LeftLeg
			{
				OFFSET 2.215000 -6.000000 0.000000
				CHANNELS 3 Zrotation Yrotation Xrotation
				JOINT LeftFoot
				{
					OFFSET 2.500000 -6.900000 0.000000
					CHANNELS 3 Zrotation Yrotation Xrotation
					JOINT LeftToeBase
					{
						OFFSET 0.200000 -0.500000 1.950000
						CHANNELS 3 Zrotation Yrotation Xrotation
						End Site
						{
							OFFSET 0.000000 0.000000 0.000000
						}
					}
				}
			}
		}
	}
	JOINT RHipJoint
	{
		OFFSET 0.000000 0.000000 0.000000
		CHANNELS 3 Zrotation Yrotation Xrotation
		JOINT RightUpLeg
		{
			OFFSET -1.800000 -1.400000 0.085000
			CHANNELS 3 Zrotation Yrotation Xrotation
			JOINT RightLeg
			{
				OFFSET -2.215000 -6.000000 0.000000
				CHANNELS 3 Zrotation Yrotation Xrotation
				JOINT RightFoot
				{
					OFFSET -2.500000 -6.900000 0.000000
					CHANNELS 3 Zrotation Yrotation Xrotation
					JOINT RightToeBase
					{
						OFFSET -0.200000 -0.500000 1.950000
						CHANNELS 3 Zrotation Yrotation Xrotation
						End Site
						{
							OFFSET 0.000000 0.000000 0.000000
						}
					}
				}
			}
		}
	}
	JOINT LowerBack
	{
		OFFSET 0.000000 0.000000 0.000000
		CHANNELS 3 Zrotation Yrotation Xrotation
		JOINT Spine
		{
			OFFSET -0.087000 1.940000 -0.288900
			CHANNELS 3 Zrotation Yrotation Xrotation
			JOINT Spine1
			{
				OFFSET 0.000000 1.950000 0.060000
				CHANNELS 3 Zrotation Yrotation Xrotation
				JOINT Neck
				{
					OFFSET 0.000000 0.000000 0.000000
					CHANNELS 3 Zrotation Yrotation Xrotation
					JOINT Neck1
					{
						OFFSET 0.000000 1.600000 0.340000
						CHANNELS 3 Zrotation Yrotation Xrotation
						JOINT Head
						{
							OFFSET 0.000000 1.667000 -0.240000
							CHANNELS 3 Zrotation Yrotation Xrotation
							End Site
							{
								OFFSET 0.000000 0.000000 0.000000
							}
						}
					}
				}
				JOINT LeftShoulder
				{
					OFFSET 0.000000 0.000000 0.000000
					CHANNELS 3 Zrotation Yrotation Xrotation
					JOINT LeftArm
					{
						OFFSET 2.700000 1.550000 -0.730000
						CHANNELS 3 Zrotation Yrotation Xrotation
						JOINT LeftForeArm
						{
							OFFSET 5.450000 0.000000 0.000000
							CHANNELS 3 Zrotation Yrotation Xrotation
							JOINT LeftHand
							{
								OFFSET 3.450000 0.000000 0.000000
								CHANNELS 3 Zrotation Yrotation Xrotation
								JOINT LeftHandIndex1
								{
									OFFSET 0.750000 0.000000 0.000000
									CHANNELS 3 Zrotation Yrotation Xrotation
									End Site
									{
										OFFSET 0.000000 0.000000 0.000000
									}
								}
							}
						}
					}
				}
				JOINT RightShoulder
				{
					OFFSET 0.000000 0.000000 0.000000
					CHANNELS 3 Zrotation Yrotation Xrotation
					JOINT RightArm
					{
						OFFSET -2.700000 1.550000 -0.730000
						CHANNELS 3 Zrotation Yrotation Xrotation
						JOINT RightForeArm
						{
							OFFSET -5.450000 0.000000 0.000000
							CHANNELS 3 Zrotation Yrotation Xrotation
							JOINT RightHand
							{
								OFFSET -3.450000 0.000000 0.000000
								CHANNELS 3 Zrotation Yrotation Xrotation
								JOINT RightHandIndex1
								{
									OFFSET -0.750000 0.000000 0.000000
									CHANNELS 3 Zrotation Yrotation Xrotation
									End Site
									{
										OFFSET 0.000000 0.000000 0.000000
									}
								}
							}
						}
					}
				}
			}
		}
	}
}
MOTION
Frames: 4
Frame Time: 0.016667
0.008180 16.904580 -0.645110 -1.734198 -4.268489 8.933135 -15.032720 13.024940 2.600971 2.366270 -0.594207 -6.811423 -8.438904 5.715850 9.577648 -0.556303 4.639375 3.526597 0.256380 -0.288610 0.137980 18.572997 -9.959385 3.420224 -2.119024 4.983527 -34.692439 6.559797 -3.471890 9.587237 0.324550 -1.965913 4.183802 0.023970 0.800120 0.098360 -4.223856 -1.872892 -6.912369 19.930617 -9.872252 7.064980 -16.242826 -6.668109 1.670734 4.491181 -10.035647 -7.308852 -16.284728 8.819088 11.391854 -2.925760 9.688550 -3.264100 -11.575894 16.124823 -3.930515 -50.752040 15.862034 -11.898951 9.128591 -5.315520 -1.577264 -4.343482 2.454737 0.483870 0.517620 -0.508520 0.399880 2.307357 -11.321842 9.972339 51.522958 -41.748817 -16.986731 133.045462 30.913357 38.457020 1.177846 -2.503790 -0.575470 0.442090 0.001370 -0.296710 
0.010070 16.899980 -0.630160 -1.967289 -4.163791 9.095731 -15.019335 13.023760 2.603425 2.745810 -0.672684 -7.006207 -8.638029 5.722095 9.475005 -0.559276 4.642135 3.510334 0.265490 -0.293270 0.144380 18.582168 -9.949705 3.424530 -2.170786 5.037301 -34.477331 6.908215 -3.541744 9.443648 0.299656 -1.972829 4.169028 0.007200 0.776250 0.118940 -4.256190 -1.888417 -6.925971 20.986608 -10.268757 7.386931 -16.421825 -6.944294 0.989131 4.497850 -10.399523 -7.178314 -16.985684 9.180168 11.233959 -3.113630 9.994140 -3.994970 -10.782584 17.117178 -4.049447 -51.325178 16.570308 -12.300366 10.364677 -5.290261 -1.584004 -4.336370 2.463885 0.516840 0.494790 -0.485630 0.395170 1.441837 -12.102430 9.733814 52.058842 -41.778021 -17.355355 131.412302 29.645637 35.082900 1.167873 -2.480652 -0.560930 0.420580 0.007220 -0.304060 
0.023110 16.902190 -0.606660 -2.104088 -3.605864 9.149398 -14.999790 13.105485 2.593835 2.734883 -0.727690 -7.453714 -8.058175 5.683615 10.197156 -0.530524 4.553707 3.505712 0.236570 -0.321810 0.116510 18.579535 -9.960307 3.427058 -2.687386 4.834120 -33.769945 7.745768 -3.617915 8.546701 0.279266 -1.980265 4.163231 -0.047480 0.726430 0.129770 -4.280025 -2.012587 -6.962807 22.457033 -11.028776 8.319538 -16.770692 -7.530412 -0.307352 4.684722 -10.829928 -7.146426 -17.828182 8.994755 11.661299 -3.491460 9.872720 -4.620810 -9.991377 18.152523 -4.169636 -51.730041 17.469441 -12.639442 11.826362 -4.746958 -1.437163 -4.317752 2.475167 0.535830 0.451580 -0.454140 0.370560 0.171171 -12.896474 9.492003 52.753251 -41.357367 -17.820244 127.619989 26.680627 27.683571 1.200192 -2.400886 -0.520580 0.376670 0.028310 -0.298240 
0.010640 16.900320 -0.581180 -1.580111 -3.312669 9.616607 -15.001463 13.101586 2.566493 2.237055 -0.852534 -8.357663 -7.558349 5.632314 11.204076 -0.545507 4.464870 3.516467 0.319420 -0.242050 0.194940 18.575765 -9.973874 3.440435 -3.302242 4.735812 -33.834993 7.976123 -3.540064 7.974318 0.251959 -1.993675 4.128987 -0.001160 0.668700 0.154610 -4.278050 -1.971194 -6.947606 22.002266 -10.716569 7.949197 -16.364449 -7.494947 -0.169790 4.554508 -10.457157 -6.586103 -17.025538 8.500427 12.132176 -4.247690 9.177320 -5.092850 -9.408114 18.716030 -4.405225 -51.655542 16.998825 -12.418862 14.098207 -4.031715 -1.265653 -4.314564 2.533038 0.519410 0.436530 -0.423590 0.382670 -0.255555 -13.727806 8.711596 53.962175 -38.310969 -18.510396 118.829907 25.076181 20.692986 1.250488 -2.358140 -0.478630 0.338850 -0.029170 -0.306100 
